:SAMPLES-PER-SECOND 30
:FULLY-SPECIFIED
:DEGREES
33
root  -55.9611 19.6047 -0.0322685 90.6705 83.1166 79.7806
RightUpLeg  -29.4408 -2.79167 -21.256
RightLeg  127.084 1.72428 12.8287
RightFoot  -23.7245 0.611294 6.51329
RightToes  1.86264e-009 -3.18055e-015 8.94531e-016
Spine  69.6245 -2.48083 2.78874
Spine1  3.02246 2.69469 -15.2395
HEad  -67.1542 -8.63221 10.5037
LeftShoulder1  0 -2.69403e-036 -1.28585e-037
LeftArm  18.6838 -34.4054 -82.6887
LeftForeArm  -17.2717 -33.5567 21.803
LeftHand  -1.1968 1.5283 25.5195
RightShoulder  -2.48481e-017 0 -8.08114e-019
RightArm  -4.54794 50.5119 71.3077
RightForeArm  5.81297 2.89183 -3.53289
RightHand  4.67108 -17.7487 -27.5509
LeftUpLeg  -83.6534 -6.6952 -13.9237
LeftLeg  122.074 -20.6048 9.07547
LeftFoot  -30.8707 -1.83192 -11.2861
LeftToes  -3.27418e-010 -1.10613e-010 -1.08532e-012
34
root  -54.8067 19.8478 -0.100436 75.264 83.3237 62.404
RightUpLeg  -29.1672 -2.18436 -20.8378
RightLeg  124.687 1.89011 13.6693
RightFoot  -23.0109 0.653285 7.46034
RightToes  1.86264e-009 -3.18055e-015 8.94531e-016
Spine  70.2453 -1.89884 0.599816
Spine1  2.25591 1.56971 -15.2026
HEad  -67.138 -4.83095 9.6639
LeftShoulder1  0 -2.69403e-036 -1.28585e-037
LeftArm  14.9287 -39.1116 -78.9663
LeftForeArm  -16.5358 -31.0936 20.7595
LeftHand  -1.13637 1.60189 24.8576
RightShoulder  -2.48481e-017 0 -8.08114e-019
RightArm  -1.83387 51.6579 76.6964
RightForeArm  6.55356 4.09271 -4.35653
RightHand  5.18536 -18.1945 -30.511
LeftUpLeg  -82.4272 -5.44345 -13.408
LeftLeg  122.989 -20.7659 8.93821
LeftFoot  -30.7447 -2.22606 -13.9203
LeftToes  -3.27418e-010 -1.10613e-010 -1.08532e-012
35
root  -53.5532 20.0373 -0.261618 50.088 83.3984 35.5645
RightUpLeg  -27.9442 -0.666313 -19.4351
RightLeg  121.35 2.30944 14.716
RightFoot  -23.077 0.712623 8.08627
RightToes  1.86264e-009 -3.18055e-015 8.94531e-016
Spine  70.3539 -1.43001 -0.743337
Spine1  1.5035 1.05457 -15.6987
HEad  -66.123 -0.656884 8.77644
LeftShoulder1  0 -2.69403e-036 -1.28585e-037
LeftArm  14.1197 -41.8578 -75.6724
LeftForeArm  -17.9387 -27.5483 19.3334
LeftHand  -1.14022 1.64263 25.2763
RightShoulder  -2.48481e-017 0 -8.08114e-019
RightArm  0.946314 51.5328 81.7573
RightForeArm  8.69154 5.47331 -4.66937
RightHand  5.21642 -18.1836 -30.7991
LeftUpLeg  -80.7807 -3.79013 -12.1744
LeftLeg  123.986 -21.5066 9.50437
LeftFoot  -30.469 -2.66025 -16.996
LeftToes  -3.27418e-010 -1.10613e-010 -1.08532e-012
36
root  -52.2118 20.0642 -0.488691 23.963 82.2664 7.77855
RightUpLeg  -26.1266 1.56825 -17.7368
RightLeg  117.533 2.77326 16.1549
RightFoot  -23.7574 0.800137 8.50123
RightToes  1.86264e-009 -3.18055e-015 8.94531e-016
Spine  70.0351 -0.947013 -0.939013
Spine1  0.507252 1.3809 -16.203
HEad  -65.1912 2.42744 7.5172
LeftShoulder1  0 -2.69403e-036 -1.28585e-037
LeftArm  13.4381 -41.3157 -74.3871
LeftForeArm  -16.9567 -24.4471 17.221
LeftHand  -1.56574 1.30609 29.8726
RightShoulder  -2.48481e-017 0 -8.08114e-019
RightArm  2.0929 50.3972 84.3903
RightForeArm  11.7195 7.80857 -5.20635
RightHand  5.0355 -17.9607 -30.0122
LeftUpLeg  -79.1348 -1.93393 -10.8105
LeftLeg  125.214 -22.8411 10.6371
LeftFoot  -29.95 -3.02589 -19.9878
LeftToes  -3.27418e-010 -1.10613e-010 -1.08532e-012
37
root  -50.8312 19.9808 -0.700721 8.50208 79.6839 -9.54576
RightUpLeg  -24.6341 4.18528 -16.6106
RightLeg  113.844 3.26501 17.786
RightFoot  -24.3975 0.897393 8.99663
RightToes  1.86264e-009 -3.18055e-015 8.94531e-016
Spine  69.4376 -0.267003 -0.522548
Spine1  -0.592506 2.40615 -16.9389
HEad  -65.3428 3.61404 6.23821
LeftShoulder1  0 -2.69403e-036 -1.28585e-037
LeftArm  12.0293 -38.3171 -74.3824
LeftForeArm  -14.872 -23.3343 15.6102
LeftHand  -2.22149 0.768678 36.1019
RightShoulder  -2.48481e-017 0 -8.08114e-019
RightArm  3.69566 49.3269 83.9781
RightForeArm  12.0603 11.2591 -6.72576
RightHand  4.65435 -17.4371 -28.3992
LeftUpLeg  -77.362 0.182986 -9.96082
LeftLeg  126.354 -24.2481 11.7739
LeftFoot  -29.3655 -3.2549 -22.2953
LeftToes  -3.27418e-010 -1.10613e-010 -1.08532e-012
38
root  -49.4423 19.8829 -0.834105 3.31488 76.6874 -16.8459
RightUpLeg  -23.7699 6.55328 -16.1234
RightLeg  110.46 3.97786 19.0417
RightFoot  -24.6282 0.936629 9.20514
RightToes  1.86264e-009 -3.18055e-015 8.94531e-016
Spine  68.4496 0.204219 0.262484
Spine1  -1.4555 3.68383 -18.6582
HEad  -66.2096 3.24155 5.40918
LeftShoulder1  0 -2.69403e-036 -1.28585e-037
LeftArm  14.2691 -34.6572 -74.5439
LeftForeArm  -17.3511 -23.72 15.9184
LeftHand  -2.67789 0.393886 39.8018
RightShoulder  -2.48481e-017 0 -8.08114e-019
RightArm  7.47351 48.8535 82.053
RightForeArm  8.57081 14.2229 -9.06537
RightHand  4.24389 -16.8509 -26.5561
LeftUpLeg  -75.3324 2.33194 -9.49456
LeftLeg  127.283 -25.0208 12.2055
LeftFoot  -28.8334 -3.33908 -23.6608
LeftToes  -3.27418e-010 -1.10613e-010 -1.08532e-012
39
root  -48.0535 19.8002 -0.859422 2.32191 74.3994 -20.183
RightUpLeg  -23.0344 7.96693 -15.7262
RightLeg  107.124 5.14933 19.176
RightFoot  -24.5689 0.88242 8.71248
RightToes  1.86264e-009 -3.18055e-015 8.94531e-016
Spine  66.9077 0.0208262 1.28344
Spine1  -2.0717 4.54287 -21.13
HEad  -66.544 2.48483 5.21978
LeftShoulder1  0 -2.69403e-036 -1.28585e-037
LeftArm  18.5607 -31.3218 -74.3121
LeftForeArm  -21.2793 -24.1223 16.2799
LeftHand  -2.8678 0.216825 40.9655
RightShoulder  -2.48481e-017 0 -8.08114e-019
RightArm  9.74099 48.4565 81.2339
RightForeArm  7.10358 15.1339 -10.0806
RightHand  4.20463 -16.8344 -26.2388
LeftUpLeg  -73.3021 4.10498 -8.9171
LeftLeg  128.183 -24.7861 11.5427
LeftFoot  -28.1692 -3.22726 -23.8931
LeftToes  -3.27418e-010 -1.10613e-010 -1.08532e-012
40
root  -46.6634 19.7122 -0.769556 2.62659 73.3789 -22.4615
RightUpLeg  -21.9146 8.02509 -14.9759
RightLeg  103.506 6.74075 17.8357
RightFoot  -24.4058 0.799847 8.0071
RightToes  1.86264e-009 -3.18055e-015 8.94531e-016
Spine  64.612 -0.516804 1.96141
Spine1  -2.44135 4.55928 -22.7495
HEad  -65.8182 2.42997 5.55228
LeftShoulder1  0 -2.69403e-036 -1.28585e-037
LeftArm  19.9494 -27.9561 -73.6514
LeftForeArm  -20.7756 -23.5867 14.8793
LeftHand  -3.04858 0.0609763 42.1066
RightShoulder  -2.48481e-017 0 -8.08114e-019
RightArm  9.66712 47.3985 83.449
RightForeArm  10.0434 14.4252 -8.83821
RightHand  4.66731 -17.5415 -28.1601
LeftUpLeg  -71.5179 5.51886 -8.03846
LeftLeg  129.085 -23.6321 9.93662
LeftFoot  -27.396 -2.93152 -22.8898
LeftToes  -3.27418e-010 -1.10613e-010 -1.08532e-012
